<svg width="383" height="560" viewBox="0 0 383 560" fill="none" xmlns="http://www.w3.org/2000/svg">
<path d="M246.067 334.892H149.013L110.002 559.199H285.078L246.067 334.892Z" fill="#2C559E"/>
<path d="M259.333 411.263L246.066 334.892H149.013L135.746 411.263H259.333Z" fill="#344B7D"/>
<path d="M119.715 503.342L110.002 559.198H285.078L275.364 503.342H119.715Z" fill="#344B7D"/>
<path d="M275.364 503.342H195.368V411.263H259.333L275.364 503.342Z" fill="#36436E"/>
<path d="M259.333 411.263H195.368V403.57C196.078 403.57 196.789 403.57 197.5 403.57C217.795 403.57 237.538 400.284 256.253 393.954L259.254 411.263H259.333Z" fill="#323B5D"/>
<path d="M277.18 514.161H195.368V503.342H275.364L277.18 514.161Z" fill="#323B5D"/>
<path d="M72.254 560H327.958V514.161H72.254V560Z" fill="#2674B9"/>
<path d="M72.254 560H327.958V537.721H72.254V560Z" fill="#334C7D"/>
<path d="M197.5 27C147.986 27 101.394 46.5538 66.3312 82.1352C31.2686 117.717 12 164.998 12 215.245C12 265.492 31.2686 312.773 66.3312 348.355C101.394 383.936 147.986 403.49 197.5 403.49C247.014 403.49 293.606 383.936 328.669 348.355C363.731 312.773 383 265.492 383 215.245C383 164.998 363.731 117.717 328.669 82.1352C293.606 46.5538 247.014 27 197.5 27Z" fill="#2F3031"/>
<path d="M374.55 215.245C374.55 314.456 295.265 394.915 197.5 394.915C99.7355 394.915 20.4498 314.456 20.4498 215.245C20.4498 116.034 99.7355 35.575 197.5 35.575C295.265 35.575 374.55 116.034 374.55 215.245Z" fill="#2592CF"/>
<path d="M374.55 215.245C374.55 314.456 295.265 394.915 197.5 394.915C99.7355 394.915 20.4498 314.456 20.4498 215.245C20.4498 116.034 99.7355 35.575 197.5 35.575C295.265 35.575 374.55 116.034 374.55 215.245Z" fill="#2592CF"/>
<path d="M364.995 215.245C364.995 309.087 289.974 385.218 197.5 385.218C105.026 385.218 30.0051 309.087 30.0051 215.245C30.0051 121.403 105.026 45.2715 197.5 45.2715C289.974 45.2715 364.995 121.403 364.995 215.245Z" fill="#2A5888"/>
<path d="M360.02 215.245C360.02 306.362 287.289 380.17 197.5 380.17C107.711 380.17 34.9803 306.362 34.9803 215.245C34.9803 124.128 107.711 50.3204 197.5 50.3204C287.289 50.3204 360.02 124.128 360.02 215.245Z" fill="#66CADC"/>
<path d="M91.7723 528.424C91.7723 532.912 88.2186 536.518 83.7173 536.518C79.295 536.518 75.7414 532.912 75.7414 528.424C75.7414 523.936 79.295 520.25 83.7173 520.25C88.1397 520.25 91.7723 523.856 91.7723 528.424Z" fill="#F49B37"/>
<path d="M88.4553 527.543C88.4553 530.828 85.8493 533.393 82.6905 533.393C79.4527 533.393 76.9257 530.748 76.9257 527.543C76.9257 524.257 79.5317 521.693 82.6905 521.693C85.9282 521.693 88.4553 524.337 88.4553 527.543Z" fill="#FBB139"/>
<path d="M81.6641 527.863C80.1637 527.863 78.9791 526.661 78.9791 525.139C78.9791 523.616 80.1637 522.414 81.6641 522.414C83.1645 522.414 84.3491 523.616 84.3491 525.139C84.3491 526.661 83.1645 527.863 81.6641 527.863Z" fill="#F9D485"/>
<path d="M130.546 528.424C130.546 532.912 126.993 536.518 122.571 536.518C118.148 536.518 114.516 532.912 114.516 528.424C114.516 523.936 118.069 520.25 122.571 520.25C126.993 520.25 130.546 523.856 130.546 528.424Z" fill="#F49B37"/>
<path d="M127.23 527.543C127.23 530.828 124.624 533.393 121.465 533.393C118.227 533.393 115.7 530.748 115.7 527.543C115.7 524.257 118.306 521.693 121.465 521.693C124.703 521.693 127.23 524.337 127.23 527.543Z" fill="#FBB139"/>
<path d="M120.517 527.863C119.017 527.863 117.832 526.661 117.832 525.139C117.832 523.616 119.017 522.414 120.517 522.414C122.017 522.414 123.202 523.616 123.202 525.139C123.202 526.661 122.017 527.863 120.517 527.863Z" fill="#F9D485"/>
<path d="M169.32 528.424C169.32 532.912 165.767 536.518 161.265 536.518C156.843 536.518 153.211 532.912 153.211 528.424C153.211 523.936 156.764 520.25 161.265 520.25C165.688 520.25 169.32 523.856 169.32 528.424Z" fill="#F49B37"/>
<path d="M166.004 527.543C166.004 530.828 163.398 533.393 160.239 533.393C157.001 533.393 154.474 530.748 154.474 527.543C154.474 524.257 157.08 521.693 160.239 521.693C163.477 521.693 166.004 524.337 166.004 527.543Z" fill="#FBB139"/>
<path d="M159.291 527.863C157.791 527.863 156.606 526.661 156.606 525.139C156.606 523.616 157.791 522.414 159.291 522.414C160.792 522.414 161.976 523.616 161.976 525.139C161.976 526.661 160.792 527.863 159.291 527.863Z" fill="#F9D485"/>
<path d="M208.174 528.424C208.174 532.912 204.62 536.518 200.198 536.518C195.775 536.518 192.143 532.912 192.143 528.424C192.143 523.936 195.696 520.25 200.198 520.25C204.62 520.25 208.174 523.856 208.174 528.424Z" fill="#F49B37"/>
<path d="M204.857 527.543C204.857 530.828 202.251 533.393 199.092 533.393C195.854 533.393 193.327 530.748 193.327 527.543C193.327 524.257 195.933 521.693 199.092 521.693C202.33 521.693 204.857 524.337 204.857 527.543Z" fill="#FBB139"/>
<path d="M198.145 527.863C196.644 527.863 195.46 526.661 195.46 525.139C195.46 523.616 196.644 522.414 198.145 522.414C199.645 522.414 200.83 523.616 200.83 525.139C200.83 526.661 199.645 527.863 198.145 527.863Z" fill="#F9D485"/>
<path d="M246.948 528.424C246.948 532.912 243.394 536.518 238.972 536.518C234.55 536.518 230.917 532.912 230.917 528.424C230.917 523.936 234.471 520.25 238.972 520.25C243.394 520.25 246.948 523.856 246.948 528.424Z" fill="#F49B37"/>
<path d="M243.631 527.543C243.631 530.828 241.025 533.393 237.866 533.393C234.628 533.393 232.101 530.748 232.101 527.543C232.101 524.257 234.707 521.693 237.866 521.693C241.104 521.693 243.631 524.337 243.631 527.543Z" fill="#FBB139"/>
<path d="M236.919 527.863C235.418 527.863 234.234 526.661 234.234 525.139C234.234 523.616 235.418 522.414 236.919 522.414C238.419 522.414 239.604 523.616 239.604 525.139C239.604 526.661 238.419 527.863 236.919 527.863Z" fill="#F9D485"/>
<path d="M285.722 528.424C285.722 532.912 282.168 536.518 277.746 536.518C273.324 536.518 269.691 532.912 269.691 528.424C269.691 523.936 273.245 520.25 277.746 520.25C282.168 520.25 285.722 523.856 285.722 528.424Z" fill="#F49B37"/>
<path d="M282.484 527.543C282.484 530.828 279.878 533.393 276.719 533.393C273.482 533.393 270.955 530.748 270.955 527.543C270.955 524.257 273.561 521.693 276.719 521.693C279.957 521.693 282.484 524.337 282.484 527.543Z" fill="#FBB139"/>
<path d="M275.693 527.863C274.192 527.863 273.008 526.661 273.008 525.139C273.008 523.616 274.192 522.414 275.693 522.414C277.193 522.414 278.378 523.616 278.378 525.139C278.378 526.661 277.193 527.863 275.693 527.863Z" fill="#F9D485"/>
<path d="M324.575 528.424C324.575 532.912 321.022 536.518 316.599 536.518C312.177 536.518 308.544 532.912 308.544 528.424C308.544 523.936 312.098 520.25 316.599 520.25C321.022 520.25 324.575 523.856 324.575 528.424Z" fill="#F49B37"/>
<path d="M321.258 527.543C321.258 530.828 318.652 533.393 315.494 533.393C312.256 533.393 309.729 530.748 309.729 527.543C309.729 524.257 312.335 521.693 315.494 521.693C318.652 521.693 321.258 524.337 321.258 527.543Z" fill="#FBB139"/>
<path d="M314.546 527.863C313.046 527.863 311.861 526.661 311.861 525.139C311.861 523.616 313.046 522.414 314.546 522.414C316.046 522.414 317.231 523.616 317.231 525.139C317.231 526.661 316.046 527.863 314.546 527.863Z" fill="#F9D485"/>
<g filter="url(#filter0_d)">
<path d="M282.769 73.8668C258.744 60.0018 230.913 52.079 201.179 52.079V215.131L282.769 73.8668Z" fill="#FF0000"/>
<path d="M201.179 52C171.445 52 143.614 59.9229 119.589 73.7878L201.179 215.052V52Z" fill="#BE0094"/>
<path d="M364.358 215.052C364.358 185.341 356.429 157.532 342.553 133.526L201.179 215.052H364.358Z" fill="#FAFF00"/>
<path d="M119.59 73.8669C94.851 88.2072 74.1563 108.807 59.8047 133.605L201.179 215.131L119.59 73.8669Z" fill="#0500FF"/>
<path d="M59.8841 133.526C46.0084 157.532 38.0793 185.341 38.0793 215.052H201.259L59.8841 133.526Z" fill="#04B900"/>
<path d="M342.553 133.526C328.202 108.807 307.586 88.1279 282.769 73.7875L201.179 215.052L342.553 133.526Z" fill="#FF8A00"/>
<path d="M282.769 356.316C307.507 341.976 328.202 321.377 342.553 296.578L201.179 215.052L282.769 356.316Z" fill="#0500FF"/>
<path d="M201 378.36C231.5 378.36 256 370.138 283 356.223L234.5 272.514L201 215.18V378.36Z" fill="#BE0094"/>
<path d="M201.179 215.052L342.553 296.578C356.429 272.572 364.358 244.763 364.358 215.052H201.179Z" fill="#04B900"/>
<path d="M59.8839 296.578C74.2355 321.298 94.8509 341.976 119.669 356.316L201.258 215.052L59.8839 296.578Z" fill="#FF8A00"/>
<path d="M119.589 356.317C143.614 370.182 171.445 378.104 201.179 378.104V215.052L119.589 356.317Z" fill="#FF0000"/>
<path d="M38 215.052C38 244.763 45.929 272.572 59.8048 296.578L201.179 215.052H38Z" fill="#FAFF00"/>
</g>
<path d="M199.977 51.3472V214.674L281.988 73.1717C257.839 59.2834 229.864 51.3472 199.977 51.3472ZM201.172 52.5376C228.988 52.7757 256.245 59.9976 280.315 73.6478L201.172 210.15V52.617V52.5376Z" fill="#FEFEFE"/>
<path d="M199.977 51.3472C170.089 51.3472 142.114 59.2834 117.965 73.1717L199.977 214.674V51.3472ZM198.781 52.5376V210.071L119.639 73.5685C143.708 59.9976 170.966 52.6963 198.781 52.4583V52.5376Z" fill="#FEFEFE"/>
<path d="M342.082 133.01L199.977 214.674H364C364 184.913 356.03 157.057 342.082 133.01ZM341.604 134.677C355.233 158.644 362.565 185.786 362.805 213.483H204.599L341.684 134.677H341.604Z" fill="#FEFEFE"/>
<path d="M117.965 73.2508C93.0984 87.6153 72.2966 108.249 57.8709 133.09L199.977 214.753L117.965 73.2508ZM117.487 74.9174L196.629 211.42L59.5446 132.613C73.5718 108.805 93.5766 88.8851 117.487 74.9174Z" fill="#FEFEFE"/>
<path d="M57.9507 133.01C44.0031 157.057 36.0331 184.913 36.0331 214.674H200.057L57.9507 133.01ZM58.4289 134.677L195.514 213.483H37.3083C37.5474 185.786 44.8001 158.644 58.5086 134.677H58.4289Z" fill="#FEFEFE"/>
<path d="M281.988 73.2508L199.977 214.753L342.082 133.09C327.657 108.329 306.935 87.6153 281.988 73.2508ZM282.467 74.9174C306.377 88.8851 326.381 108.805 340.409 132.613L203.324 211.42L282.467 74.9174Z" fill="#FEFEFE"/>
<path d="M199.977 214.674L281.988 356.176C306.855 341.811 327.657 321.177 342.082 296.337L199.977 214.674ZM203.324 218.007L340.409 296.813C326.381 320.621 306.377 340.541 282.467 354.509L203.324 218.007Z" fill="#FEFEFE"/>
<path d="M199.977 214.674V378C229.864 378 257.839 370.064 281.988 356.176L199.977 214.674ZM201.172 219.197L280.315 355.699C256.245 369.27 228.988 376.571 201.172 376.81V219.277V219.197Z" fill="#FEFEFE"/>
<path d="M364 214.674H199.977L342.082 296.337C356.03 272.29 364 244.434 364 214.674ZM362.805 215.864C362.565 243.561 355.313 270.703 341.604 294.67L204.52 215.864H362.725H362.805Z" fill="#FEFEFE"/>
<path d="M199.977 214.674L57.8709 296.337C72.2966 321.098 93.0187 341.811 117.965 356.176L199.977 214.674ZM196.629 218.007L117.487 354.509C93.5766 340.541 73.5718 320.621 59.5446 296.813L196.629 218.007Z" fill="#FEFEFE"/>
<path d="M199.977 214.674L117.965 356.176C142.114 370.064 170.089 378 199.977 378V214.674ZM198.781 219.197V376.73C170.966 376.492 143.708 369.27 119.639 355.62L198.781 219.118V219.197Z" fill="#FEFEFE"/>
<path d="M199.977 214.674H35.9533C35.9533 244.434 43.9233 272.29 57.8709 296.337L199.977 214.674ZM195.434 215.864L58.3491 294.67C44.7203 270.703 37.3879 243.561 37.1488 215.864H195.354H195.434Z" fill="#FEFEFE"/>
<path d="M234.806 272.37L232.574 268.481C241.341 263.243 248.674 255.862 254.014 247.133L257.839 249.355C252.181 258.799 244.21 266.656 234.806 272.37Z" fill="#53304D"/>
<path d="M201.252 281.972V277.528C211.852 277.29 221.815 274.512 230.502 269.751L232.733 273.639C223.409 278.798 212.649 281.814 201.252 282.052V281.972Z" fill="#435D58"/>
<path d="M233.77 273.005L231.538 269.116C231.857 268.878 232.255 268.719 232.574 268.481L234.806 272.37C234.487 272.608 234.088 272.766 233.77 273.005ZM257.839 249.355L254.014 247.133C254.253 246.815 254.412 246.418 254.651 246.101L258.477 248.323C258.238 248.64 258.078 249.037 257.839 249.355Z" fill="#6D7070"/>
<path d="M199.977 281.972V277.528C200.375 277.528 200.774 277.528 201.172 277.528V281.972C200.774 281.972 200.375 281.972 199.977 281.972ZM232.733 273.56L230.502 269.671C230.821 269.512 231.219 269.274 231.538 269.036L233.77 272.925C233.451 273.163 233.052 273.322 232.733 273.56Z" fill="#6D7070"/>
<path d="M198.781 281.972C187.384 281.734 176.624 278.718 167.299 273.56L169.531 269.671C178.218 274.433 188.181 277.29 198.781 277.449V281.893V281.972Z" fill="#624B59"/>
<path d="M165.148 272.37C155.743 266.656 147.773 258.799 142.114 249.355L145.94 247.133C151.2 255.862 158.612 263.164 167.379 268.481L165.148 272.37Z" fill="#265063"/>
<path d="M259.114 247.291L255.289 245.069C260.071 236.419 262.94 226.498 263.099 215.943H267.483C267.324 227.292 264.295 238.006 259.114 247.291Z" fill="#694E2E"/>
<path d="M230.502 159.676C221.815 154.914 211.852 152.057 201.252 151.898V147.692C212.649 147.93 223.329 150.867 232.654 156.025L230.502 159.676Z" fill="#666657"/>
<path d="M169.531 159.676L167.379 156.025C176.704 150.867 187.384 147.851 198.781 147.692V151.898C188.181 152.136 178.219 154.914 169.531 159.676Z" fill="#3F5E65"/>
<path d="M267.483 213.483H263.099C262.86 202.928 260.071 193.008 255.289 184.357L259.035 182.215C264.215 191.5 267.244 202.134 267.483 213.483Z" fill="#662D39"/>
<path d="M146.02 182.215L142.274 180.072C147.932 170.707 155.902 162.85 165.307 157.216L167.459 160.866C158.692 166.104 151.36 173.485 146.02 182.215Z" fill="#694E2E"/>
<path d="M136.933 213.483H132.55C132.789 202.134 135.818 191.5 140.998 182.215L144.744 184.357C139.962 193.008 137.093 202.928 136.933 213.483Z" fill="#6D6A3C"/>
<path d="M254.014 182.215C248.753 173.485 241.341 166.184 232.574 160.866L234.726 157.216C244.131 162.85 252.101 170.707 257.76 180.072L254.014 182.215Z" fill="#244C4D"/>
<path d="M231.538 160.311C231.219 160.072 230.821 159.914 230.502 159.676L232.654 156.025C232.973 156.184 233.371 156.422 233.69 156.66L231.538 160.311ZM201.252 151.898C200.853 151.898 200.455 151.898 200.056 151.898V147.692C200.455 147.692 200.853 147.692 201.252 147.692V151.898Z" fill="#6D7070"/>
<path d="M168.495 160.311L166.343 156.66C166.662 156.422 167.06 156.263 167.379 156.025L169.531 159.676C169.212 159.834 168.814 160.072 168.495 160.311ZM198.781 151.898V147.692C199.18 147.692 199.578 147.692 199.977 147.692V151.898C199.578 151.898 199.18 151.898 198.781 151.898Z" fill="#6D7070"/>
<path d="M267.483 214.674H263.099C263.099 214.277 263.099 213.88 263.099 213.483H267.483C267.483 213.88 267.483 214.277 267.483 214.674ZM255.289 184.357C255.129 184.04 254.89 183.643 254.651 183.326L258.397 181.183C258.636 181.5 258.795 181.897 259.035 182.215L255.289 184.357Z" fill="#6D7070"/>
<path d="M145.382 183.326L141.636 181.183C141.875 180.865 142.034 180.469 142.273 180.151L146.019 182.294C145.78 182.611 145.621 183.008 145.382 183.326ZM167.459 160.946L165.307 157.295C165.626 157.057 166.024 156.898 166.343 156.66L168.495 160.311C168.176 160.549 167.778 160.708 167.459 160.946Z" fill="#6D7070"/>
<path d="M136.933 214.674H132.55C132.55 214.277 132.55 213.88 132.55 213.483H136.933C136.933 213.88 136.933 214.277 136.933 214.674ZM144.744 184.357L140.998 182.215C141.158 181.897 141.397 181.5 141.636 181.183L145.382 183.326C145.143 183.643 144.983 184.04 144.744 184.357Z" fill="#6D7070"/>
<path d="M254.651 183.326C254.412 183.008 254.253 182.611 254.013 182.294L257.759 180.151C257.999 180.469 258.158 180.865 258.397 181.183L254.651 183.326ZM232.574 160.946C232.255 160.708 231.857 160.549 231.538 160.311L233.69 156.66C234.009 156.898 234.407 157.057 234.726 157.295L232.574 160.946Z" fill="#6D7070"/>
<path d="M258.477 248.323L254.651 246.101C254.89 245.783 255.05 245.386 255.289 245.069L259.114 247.291C258.955 247.609 258.716 248.005 258.477 248.323ZM267.403 215.943H263.02C263.02 215.546 263.02 215.15 263.02 214.753H267.403C267.403 214.832 267.403 214.832 267.403 214.911C267.403 215.308 267.403 215.626 267.403 216.023V215.943Z" fill="#6D7070"/>
<path d="M166.184 273.005C165.865 272.766 165.467 272.608 165.148 272.37L167.379 268.481C167.698 268.719 168.097 268.878 168.415 269.116L166.184 273.005ZM142.114 249.355C141.875 249.037 141.716 248.64 141.477 248.323L145.302 246.101C145.541 246.418 145.701 246.815 145.94 247.133L142.114 249.355Z" fill="#6D7070"/>
<path d="M199.977 281.972C199.578 281.972 199.18 281.972 198.781 281.972V277.528C199.18 277.528 199.578 277.528 199.977 277.528V281.972ZM167.22 273.56C166.901 273.401 166.503 273.163 166.184 272.925L168.415 269.036C168.734 269.274 169.133 269.433 169.451 269.671L167.22 273.56Z" fill="#6D7070"/>
<path d="M140.918 247.291C135.738 238.006 132.709 227.292 132.55 215.943H136.933C137.173 226.498 139.962 236.419 144.744 245.069L140.918 247.291Z" fill="#642A48"/>
<path d="M141.476 248.323C141.237 248.005 141.078 247.609 140.839 247.291L144.664 245.069C144.824 245.387 145.063 245.783 145.302 246.101L141.476 248.323ZM136.854 215.943H132.47C132.47 215.547 132.47 215.229 132.47 214.832C132.47 214.753 132.47 214.753 132.47 214.674H136.854C136.854 215.07 136.854 215.467 136.854 215.864V215.943Z" fill="#6D7070"/>
<path d="M263.099 214.674C263.099 249.355 234.885 277.528 199.977 277.528C165.148 277.528 136.854 249.434 136.854 214.674C136.854 179.993 165.068 151.819 199.977 151.819C234.806 151.819 263.099 179.913 263.099 214.674Z" fill="#314F83"/>
<path d="M263.02 217.293C263.02 216.42 263.099 215.626 263.099 214.753C263.099 180.072 234.885 151.898 199.977 151.898C165.148 151.898 136.854 179.992 136.854 214.753C136.854 215.626 136.854 216.499 136.934 217.293H262.94H263.02Z" fill="#1E66A7"/>
<path d="M250.029 214.674C250.029 242.212 227.633 264.513 199.977 264.513C172.321 264.513 149.925 242.212 149.925 214.674C149.925 187.135 172.321 164.834 199.977 164.834C227.633 164.834 250.029 187.135 250.029 214.674Z" fill="#37355F"/>
<path d="M246.442 214.673C246.442 240.228 225.64 260.862 200.056 260.862C174.393 260.862 153.671 240.149 153.671 214.673C153.671 189.119 174.472 168.485 200.056 168.485C225.72 168.485 246.442 189.198 246.442 214.673Z" fill="#679ED4"/>
<path d="M201.013 176.421L211.772 198.246L236.001 201.738L218.467 218.721L222.612 242.768L201.013 231.419L179.334 242.768L183.479 218.721L165.945 201.738L190.174 198.246L201.013 176.421Z" fill="#FBB139"/>
<path d="M201.013 213.086V189.516C202.926 188.881 204.838 188.405 206.751 188.008L211.852 198.245L201.013 213.086Z" fill="#EE9339"/>
<path d="M218.467 218.721L201.013 213.086L236.001 201.737L218.467 218.721Z" fill="#EE9339"/>
<path d="M222.612 242.767L201.013 231.419V213.086L222.612 242.767Z" fill="#EE9339"/>
<path d="M179.334 242.767L183.479 218.721L201.013 213.086L179.334 242.767Z" fill="#EE9339"/>
<path d="M201.013 213.086L177.74 205.547C179.573 203.166 181.566 201.103 183.718 199.198L190.253 198.246L201.092 213.086H201.013Z" fill="#EE9339"/>
<path d="M200.774 212.213L200.056 203.087L200.375 189.674C200.455 189.674 200.614 189.595 200.694 189.595L200.774 206.499V212.293V212.213Z" fill="#F9D485"/>
<path d="M202.049 212.213L210.896 208.801L234.646 201.817L202.049 212.213Z" fill="#F9D485"/>
<path d="M222.054 241.26L201.73 213.642L209.142 222.451L222.054 241.26Z" fill="#F9D485"/>
<path d="M180.928 241.498L200.614 214.039L194.796 223.403L180.928 241.498Z" fill="#F9D485"/>
<path d="M199.977 213.007L190.731 210.944L177.342 206.023C177.422 205.944 177.501 205.785 177.581 205.706L200.056 213.007H199.977Z" fill="#F9D485"/>
<path d="M137.89 215.705C137.89 215.705 140.6 166.58 184.594 156.025C184.594 156.025 213.924 147.533 234.646 164.914C234.646 164.914 159.568 130.233 137.89 215.705Z" fill="#2794CE"/>
<path d="M174.233 250.069C146.737 226.975 160.206 198.722 160.206 198.722C173.038 173.802 196.231 171.977 196.231 171.977C198.223 171.739 200.216 171.58 202.049 171.58C226.756 171.58 238.631 192.294 238.631 192.294C233.371 188.722 225.879 186.818 217.67 186.818C214.084 186.818 210.417 187.214 206.672 187.929L200.933 176.342L192.724 192.849C189.456 194.516 186.428 196.658 183.558 199.119L165.865 201.658L174.473 210.071C161.481 232.133 174.154 250.069 174.154 250.069H174.233Z" fill="#B7D2E9"/>
<path d="M174.552 210.071L165.945 201.658L177.661 205.468C177.581 205.547 177.581 205.626 177.501 205.706L167.857 202.611L177.262 206.023C176.385 207.134 175.588 208.404 174.871 209.594C174.791 209.753 174.712 209.912 174.632 210.071H174.552ZM192.724 192.928L200.933 176.421L206.672 188.008L200.933 176.421V189.516C200.853 189.516 200.774 189.595 200.614 189.595L200.535 177.77L200.216 189.675C197.665 190.548 195.115 191.659 192.644 192.928H192.724Z" fill="#FBDB99"/>
<path d="M201.013 189.516V176.421L206.751 188.008C204.838 188.405 202.926 188.881 201.013 189.516Z" fill="#F4CE9A"/>
<path d="M177.661 205.547L165.945 201.738L183.638 199.198C181.486 201.103 179.494 203.166 177.661 205.547Z" fill="#F4CE9A"/>
<path d="M200.375 189.675L200.694 177.77L200.774 189.595C200.694 189.595 200.534 189.675 200.455 189.675H200.375Z" fill="#FBEBC6"/>
<path d="M177.262 206.023L167.857 202.611L177.501 205.706C177.421 205.785 177.342 205.944 177.262 206.023Z" fill="#FBEBC6"/>
<path d="M178.059 38.0937L177.262 35.7128H179.733L180.45 37.8556C179.653 37.9349 178.856 38.0143 178.059 38.0937ZM221.974 38.0937C221.177 38.0143 220.38 37.9349 219.583 37.8556L220.3 35.7128H222.771L221.974 38.0937Z" fill="#262629"/>
<path d="M181.247 47.379L178.059 38.0937C178.856 38.0143 179.653 37.9349 180.45 37.8556L183.638 47.2203C182.841 47.2996 182.044 47.379 181.247 47.4584V47.379ZM218.786 47.379C217.989 47.2996 217.192 47.2203 216.395 47.1409L219.583 37.7762C220.38 37.8556 221.177 37.9349 221.974 38.0143L218.786 47.2996V47.379Z" fill="#254B63"/>
<path d="M182.841 52.22L181.167 47.3789C181.964 47.2996 182.761 47.2202 183.558 47.1408L185.232 51.9819C184.435 52.0613 183.638 52.1406 182.841 52.22ZM217.112 52.22C216.315 52.1406 215.518 52.0613 214.721 51.9819L216.395 47.1408C217.192 47.2202 217.989 47.2996 218.786 47.3789L217.112 52.22Z" fill="#283344"/>
<path d="M217.112 52.2194C216.315 52.1403 215.518 52.0611 214.721 51.982C215.518 52.0611 216.315 52.1403 217.112 52.2194ZM182.841 52.2194C183.638 52.1403 184.435 52.0611 185.232 51.982C184.435 52.0611 183.638 52.1403 182.841 52.2194Z" fill="#3F5E65"/>
<path d="M201.252 98.8055V91.5042L214.323 53.2518C215.12 53.3312 215.917 53.4106 216.714 53.4899L201.252 98.8055Z" fill="#666657"/>
<path d="M198.781 98.8055L183.319 53.4899C184.116 53.4106 184.913 53.3312 185.71 53.2518L198.781 91.5042V98.8055Z" fill="#3F5E65"/>
<path d="M199.977 102.377V95.0753L201.172 91.5041V98.8054L199.977 102.377ZM216.714 53.4898C215.917 53.4104 215.12 53.3311 214.323 53.2517L214.721 52.0613C215.518 52.1406 216.315 52.22 217.112 52.2994L216.714 53.4898Z" fill="#6D7070"/>
<path d="M199.977 102.377L198.781 98.8054V91.5041L199.977 95.0753V102.377ZM183.24 53.4898L182.841 52.2994C183.638 52.22 184.435 52.1406 185.232 52.0613L185.631 53.2517C184.834 53.3311 184.037 53.4104 183.24 53.4898Z" fill="#6D7070"/>
<path d="M199.977 95.0754L175.509 23.3324H224.524L199.977 95.0754Z" fill="#EC513A"/>
<path d="M199.977 95.0754L198.861 23.3324H224.524L199.977 95.0754Z" fill="#AD4337"/>
<path d="M198.064 85.314L178.219 26.3482L196.55 74.997L198.064 85.314Z" fill="#F47F66"/>
<path d="M198.064 3.57123L204.041 15.6342L217.511 17.6183L207.787 27.0623L210.099 40.3951L198.064 34.0461L186.029 40.3951L188.34 27.0623L178.617 17.6183L192.007 15.6342L198.064 3.57123Z" fill="#FBB139"/>
<path d="M198.064 23.8878V3.57123L204.041 15.6342L198.064 23.8878Z" fill="#EE9339"/>
<path d="M207.787 27.0625L198.064 23.888L217.511 17.6184L207.787 27.0625Z" fill="#EE9339"/>
<path d="M210.099 40.3951L198.064 34.0462V23.8879L210.099 40.3951Z" fill="#EE9339"/>
<path d="M186.029 40.3951L188.34 27.0623L198.064 23.8879L186.029 40.3951Z" fill="#EE9339"/>
<path d="M198.064 23.8881L178.617 17.6185L192.007 15.6345L198.064 23.8881Z" fill="#EE9339"/>
<path d="M197.984 23.4118L197.506 18.412L197.904 4.28558V20.2373L197.984 23.4118Z" fill="#F9D485"/>
<path d="M198.622 23.4118L203.563 21.5071L216.714 17.6977L198.622 23.4118Z" fill="#F9D485"/>
<path d="M209.78 39.5221L198.462 24.2053L202.527 29.1257L209.78 39.5221Z" fill="#F9D485"/>
<path d="M186.906 39.6808L197.825 24.4434L194.637 29.6019L186.906 39.6808Z" fill="#F9D485"/>
<path d="M197.506 23.8877L192.325 22.6973L179.653 18.0943L197.506 23.8877Z" fill="#F9D485"/>
<defs>
<filter id="filter0_d" x="34" y="52" width="334.358" height="334.36" filterUnits="userSpaceOnUse" color-interpolation-filters="sRGB">
<feFlood flood-opacity="0" result="BackgroundImageFix"/>
<feColorMatrix in="SourceAlpha" type="matrix" values="0 0 0 0 0 0 0 0 0 0 0 0 0 0 0 0 0 0 127 0"/>
<feOffset dy="4"/>
<feGaussianBlur stdDeviation="2"/>
<feColorMatrix type="matrix" values="0 0 0 0 0 0 0 0 0 0 0 0 0 0 0 0 0 0 0.25 0"/>
<feBlend mode="normal" in2="BackgroundImageFix" result="effect1_dropShadow"/>
<feBlend mode="normal" in="SourceGraphic" in2="effect1_dropShadow" result="shape"/>
</filter>
</defs>
</svg>
